<?xml version="1.0" encoding="utf-8"?>
<!-- Generator: Adobe Illustrator 25.2.3, SVG Export Plug-In . SVG Version: 6.00 Build 0)  -->
<svg version="1.1" id="Layer_1" xmlns="http://www.w3.org/2000/svg" xmlns:xlink="http://www.w3.org/1999/xlink" x="0px" y="0px"
	 viewBox="0 0 210 100" style="enable-background:new 0 0 210 100;" xml:space="preserve">
<style type="text/css">
	.st0{fill:none;stroke:#000000;stroke-width:0.5;stroke-miterlimit:10;}
	.st1{fill:none;stroke:#000000;stroke-width:0.5;stroke-linejoin:bevel;stroke-miterlimit:10;}
</style>
<g>
	<path d="M73.7,44.6h0.9l4.1,9.8h-1l-1.1-2.6h-5.2l-1.1,2.6h-0.9L73.7,44.6z M74.1,45.5l-2.3,5.4h4.5L74.1,45.5z"/>
	<path d="M79.9,49.7c0-0.1,0-0.3,0-0.4c0-0.2,0-0.3,0-0.5c0-0.2,0-0.3,0-0.5s0-0.3,0-0.3h0.8c0,0.2,0,0.5,0,0.7s0,0.4,0,0.4h0
		c0.2-0.3,0.4-0.7,0.8-0.9c0.4-0.2,0.8-0.4,1.3-0.4c0.5,0,0.9,0.1,1.2,0.2c0.3,0.2,0.6,0.4,0.7,0.6c0.2,0.2,0.3,0.6,0.4,0.9
		c0.1,0.3,0.1,0.7,0.1,1v3.8h-0.8v-3.8c0-0.3,0-0.5-0.1-0.8c-0.1-0.2-0.1-0.5-0.2-0.7c-0.1-0.2-0.3-0.3-0.5-0.5
		c-0.2-0.1-0.5-0.2-0.8-0.2c-0.3,0-0.6,0.1-0.9,0.2c-0.3,0.1-0.5,0.3-0.7,0.5c-0.2,0.2-0.3,0.5-0.5,0.8c-0.1,0.3-0.2,0.7-0.2,1.2
		v3.2h-0.8C79.9,54.3,79.9,49.7,79.9,49.7z"/>
	<path d="M90.7,48.7h-1.8v4.2c0,0.3,0.1,0.5,0.2,0.7c0.2,0.2,0.4,0.2,0.7,0.2c0.2,0,0.3,0,0.5-0.1c0.2,0,0.3-0.1,0.5-0.2l0.1,0.7
		c-0.2,0.1-0.3,0.1-0.5,0.2c-0.2,0.1-0.4,0.1-0.5,0.1c-0.3,0-0.5,0-0.8-0.1s-0.4-0.2-0.5-0.3s-0.2-0.3-0.3-0.5S88,53.1,88,52.8v-4.2
		h-1.4V48H88v-1.8h0.8V48h1.8C90.7,48,90.7,48.7,90.7,48.7z"/>
	<path d="M92.2,43.9H93v5.2h0c0.2-0.3,0.4-0.7,0.8-0.9c0.4-0.2,0.8-0.4,1.4-0.4c0.5,0,0.9,0.1,1.2,0.2c0.3,0.2,0.6,0.4,0.7,0.6
		c0.2,0.2,0.3,0.6,0.4,0.9c0.1,0.3,0.1,0.7,0.1,1v3.8h-0.8v-3.8c0-0.3,0-0.5-0.1-0.8s-0.1-0.5-0.2-0.7c-0.1-0.2-0.3-0.3-0.5-0.5
		c-0.2-0.1-0.5-0.2-0.8-0.2c-0.3,0-0.6,0.1-0.9,0.2c-0.3,0.1-0.5,0.3-0.7,0.5c-0.2,0.2-0.3,0.5-0.5,0.8c-0.1,0.3-0.2,0.7-0.2,1.2
		v3.2h-0.8V43.9z"/>
	<path d="M99.5,51.1c0-0.5,0.1-0.9,0.2-1.3c0.2-0.4,0.4-0.8,0.7-1.1c0.3-0.3,0.7-0.5,1.1-0.7c0.4-0.2,0.9-0.2,1.3-0.2
		s0.9,0.1,1.3,0.2c0.4,0.2,0.8,0.4,1.1,0.7c0.3,0.3,0.5,0.7,0.7,1.1c0.2,0.4,0.2,0.9,0.2,1.3s-0.1,0.9-0.2,1.3
		c-0.2,0.4-0.4,0.8-0.7,1.1c-0.3,0.3-0.7,0.5-1.1,0.7c-0.4,0.2-0.9,0.2-1.3,0.2s-0.9-0.1-1.3-0.2c-0.4-0.2-0.8-0.4-1.1-0.7
		c-0.3-0.3-0.5-0.7-0.7-1.1C99.6,52.1,99.5,51.6,99.5,51.1z M100.3,51.1c0,0.4,0.1,0.7,0.2,1c0.1,0.3,0.3,0.6,0.5,0.8
		c0.2,0.2,0.5,0.4,0.8,0.6c0.3,0.1,0.7,0.2,1.1,0.2s0.7-0.1,1.1-0.2c0.3-0.1,0.6-0.3,0.8-0.6s0.4-0.5,0.5-0.8s0.2-0.7,0.2-1
		c0-0.4-0.1-0.7-0.2-1c-0.1-0.3-0.3-0.6-0.5-0.8c-0.2-0.2-0.5-0.4-0.8-0.6c-0.3-0.1-0.7-0.2-1.1-0.2s-0.7,0.1-1.1,0.2
		c-0.3,0.1-0.6,0.3-0.8,0.6s-0.4,0.5-0.5,0.8C100.4,50.4,100.3,50.8,100.3,51.1z"/>
	<path d="M108.1,49.7c0-0.1,0-0.3,0-0.4s0-0.3,0-0.5c0-0.2,0-0.3,0-0.5c0-0.2,0-0.3,0-0.3h0.8c0,0.2,0,0.5,0,0.7s0,0.4,0,0.4h0
		c0.2-0.3,0.4-0.7,0.8-0.9s0.8-0.4,1.3-0.4c0.5,0,0.9,0.1,1.2,0.2c0.3,0.2,0.6,0.4,0.7,0.6c0.2,0.2,0.3,0.6,0.4,0.9
		c0.1,0.3,0.1,0.7,0.1,1v3.8h-0.8v-3.8c0-0.3,0-0.5-0.1-0.8s-0.1-0.5-0.2-0.7c-0.1-0.2-0.3-0.3-0.5-0.5c-0.2-0.1-0.5-0.2-0.8-0.2
		c-0.3,0-0.6,0.1-0.9,0.2c-0.3,0.1-0.5,0.3-0.7,0.5c-0.2,0.2-0.3,0.5-0.5,0.8c-0.1,0.3-0.2,0.7-0.2,1.2v3.2h-0.8L108.1,49.7
		L108.1,49.7z"/>
	<path d="M117.5,56.3c-0.2,0.4-0.4,0.7-0.7,1c-0.3,0.2-0.6,0.4-1.1,0.4c-0.1,0-0.3,0-0.4,0s-0.3-0.1-0.4-0.1l0.1-0.8
		c0.1,0,0.2,0.1,0.4,0.1c0.1,0,0.2,0.1,0.4,0.1c0.2,0,0.3,0,0.4-0.1c0.1-0.1,0.2-0.2,0.3-0.2c0.1-0.1,0.2-0.2,0.2-0.3
		c0.1-0.1,0.1-0.2,0.2-0.4l0.6-1.5l-2.6-6.4h0.9l2.1,5.4l2.1-5.4h0.9L117.5,56.3z"/>
	<path d="M131.3,53.2L131.3,53.2c-0.2,0.2-0.3,0.4-0.5,0.6c-0.2,0.2-0.4,0.3-0.6,0.4s-0.5,0.2-0.7,0.2s-0.5,0.1-0.7,0.1
		c-0.5,0-0.9-0.1-1.3-0.2c-0.4-0.2-0.8-0.4-1.1-0.7c-0.3-0.3-0.5-0.7-0.7-1.1s-0.2-0.9-0.2-1.3s0.1-0.9,0.2-1.3
		c0.2-0.4,0.4-0.8,0.7-1.1c0.3-0.3,0.7-0.5,1.1-0.7c0.4-0.2,0.9-0.2,1.3-0.2c0.2,0,0.5,0,0.7,0.1s0.5,0.1,0.7,0.2
		c0.2,0.1,0.4,0.2,0.6,0.4s0.3,0.3,0.5,0.6h0v-5.2h0.8v10.4h-0.8V53.2z M131.4,51.1c0-0.4-0.1-0.7-0.2-1s-0.3-0.6-0.6-0.8
		c-0.2-0.2-0.5-0.4-0.8-0.6c-0.3-0.1-0.7-0.2-1.1-0.2c-0.4,0-0.7,0.1-1,0.2c-0.3,0.1-0.6,0.3-0.8,0.6s-0.4,0.5-0.5,0.8
		c-0.1,0.3-0.2,0.7-0.2,1c0,0.4,0.1,0.7,0.2,1c0.1,0.3,0.3,0.6,0.5,0.8c0.2,0.2,0.5,0.4,0.8,0.6c0.3,0.1,0.7,0.2,1,0.2
		c0.4,0,0.7-0.1,1.1-0.2c0.3-0.1,0.6-0.3,0.8-0.6c0.2-0.2,0.4-0.5,0.6-0.8S131.4,51.5,131.4,51.1z"/>
	<path d="M139.8,53.1c-0.3,0.5-0.7,0.8-1.2,1.1c-0.5,0.2-1,0.3-1.6,0.3c-0.5,0-0.9-0.1-1.3-0.2c-0.4-0.2-0.7-0.4-1-0.7
		c-0.3-0.3-0.5-0.7-0.7-1.1s-0.2-0.9-0.2-1.4c0-0.5,0.1-0.9,0.2-1.3c0.2-0.4,0.4-0.8,0.7-1.1c0.3-0.3,0.6-0.5,1-0.7s0.8-0.2,1.3-0.2
		c0.5,0,0.9,0.1,1.3,0.2c0.4,0.2,0.7,0.4,0.9,0.7s0.4,0.6,0.6,1c0.1,0.4,0.2,0.7,0.2,1.1v0.6h-5.3c0,0.2,0,0.4,0.1,0.7
		c0.1,0.3,0.2,0.5,0.4,0.8c0.2,0.3,0.4,0.5,0.7,0.7s0.7,0.3,1.2,0.3c0.4,0,0.8-0.1,1.2-0.3c0.4-0.2,0.7-0.5,0.9-0.8L139.8,53.1z
		 M139.1,50.6c0-0.3-0.1-0.6-0.2-0.8c-0.1-0.2-0.3-0.5-0.5-0.7s-0.4-0.3-0.7-0.4c-0.3-0.1-0.6-0.2-0.9-0.2c-0.4,0-0.8,0.1-1.1,0.3
		c-0.3,0.2-0.5,0.4-0.7,0.6c-0.2,0.2-0.3,0.5-0.4,0.7c-0.1,0.2-0.1,0.4-0.1,0.5C134.6,50.6,139.1,50.6,139.1,50.6z"/>
	<path d="M145.5,43.9h0.8v10.4h-0.8V43.9z"/>
	<path d="M153.7,51.6c0,0.3,0,0.6,0,0.8c0,0.2,0,0.5,0,0.7s0,0.4,0,0.6c0,0.2,0,0.4,0.1,0.6H153c-0.1-0.3-0.1-0.7-0.1-1h0
		c-0.2,0.4-0.5,0.7-0.9,0.9c-0.3,0.2-0.8,0.3-1.3,0.3c-0.3,0-0.6,0-0.8-0.1c-0.3-0.1-0.5-0.2-0.7-0.3c-0.2-0.2-0.4-0.3-0.5-0.6
		c-0.1-0.2-0.2-0.5-0.2-0.9c0-0.5,0.1-0.9,0.4-1.2s0.6-0.5,0.9-0.6c0.4-0.1,0.8-0.2,1.2-0.3c0.4,0,0.8-0.1,1.1-0.1h1v-0.4
		c0-0.6-0.2-0.9-0.5-1.2c-0.3-0.2-0.8-0.4-1.3-0.4c-0.7,0-1.4,0.2-1.9,0.7l-0.5-0.6c0.3-0.3,0.7-0.5,1.1-0.7s0.9-0.2,1.3-0.2
		c0.8,0,1.4,0.2,1.9,0.6c0.5,0.4,0.7,0.9,0.7,1.8L153.7,51.6L153.7,51.6z M152,51.1c-0.3,0-0.7,0-1,0.1c-0.3,0.1-0.6,0.1-0.9,0.2
		c-0.3,0.1-0.5,0.3-0.6,0.4c-0.2,0.2-0.2,0.4-0.2,0.7c0,0.2,0,0.4,0.1,0.5c0.1,0.2,0.2,0.3,0.3,0.4c0.1,0.1,0.3,0.2,0.5,0.2
		s0.3,0.1,0.5,0.1c0.4,0,0.8-0.1,1.1-0.2c0.3-0.1,0.5-0.3,0.7-0.5c0.2-0.2,0.3-0.4,0.4-0.7c0.1-0.3,0.1-0.5,0.1-0.8v-0.4L152,51.1
		L152,51.1z"/>
	<path d="M159.7,44.6h5.9v0.8h-4.9v3.5h4.6v0.8h-4.6v4.6h-0.9V44.6z"/>
	<path d="M172.5,52.5c0,0.1,0,0.3,0,0.4s0,0.3,0,0.5s0,0.3,0,0.5c0,0.2,0,0.3,0,0.3h-0.8c0-0.2,0-0.5,0-0.7s0-0.4,0-0.4h0
		c-0.2,0.3-0.4,0.7-0.8,0.9s-0.8,0.4-1.4,0.4c-0.5,0-0.9-0.1-1.2-0.2c-0.3-0.2-0.6-0.4-0.8-0.6c-0.2-0.2-0.3-0.5-0.4-0.9
		c-0.1-0.3-0.1-0.7-0.1-1v-3.8h0.8v3.8c0,0.3,0,0.5,0.1,0.8s0.1,0.5,0.2,0.7c0.1,0.2,0.3,0.3,0.5,0.5c0.2,0.1,0.5,0.2,0.8,0.2
		c0.3,0,0.6-0.1,0.9-0.2s0.5-0.3,0.7-0.5c0.2-0.2,0.4-0.5,0.5-0.8c0.1-0.3,0.2-0.7,0.2-1.2v-3.2h0.8L172.5,52.5L172.5,52.5z"/>
	<path d="M180.4,53.1c-0.3,0.5-0.7,0.8-1.2,1.1c-0.5,0.2-1,0.3-1.6,0.3c-0.5,0-0.9-0.1-1.3-0.2c-0.4-0.2-0.7-0.4-1-0.7
		c-0.3-0.3-0.5-0.7-0.7-1.1s-0.2-0.9-0.2-1.4c0-0.5,0.1-0.9,0.2-1.3c0.2-0.4,0.4-0.8,0.7-1.1c0.3-0.3,0.6-0.5,1-0.7s0.8-0.2,1.3-0.2
		c0.5,0,0.9,0.1,1.3,0.2s0.7,0.4,0.9,0.7s0.4,0.6,0.6,1s0.2,0.7,0.2,1.1v0.6h-5.4c0,0.2,0,0.4,0.1,0.7s0.2,0.5,0.4,0.8
		c0.2,0.3,0.4,0.5,0.7,0.7c0.3,0.2,0.7,0.3,1.2,0.3c0.4,0,0.8-0.1,1.2-0.3c0.4-0.2,0.7-0.5,0.9-0.8L180.4,53.1z M179.8,50.6
		c0-0.3-0.1-0.6-0.2-0.8c-0.1-0.2-0.3-0.5-0.5-0.7s-0.4-0.3-0.7-0.4s-0.6-0.2-0.9-0.2c-0.4,0-0.8,0.1-1.1,0.3
		c-0.3,0.2-0.5,0.4-0.7,0.6c-0.2,0.2-0.3,0.5-0.4,0.7c-0.1,0.2-0.1,0.4-0.1,0.5C175.3,50.6,179.8,50.6,179.8,50.6z"/>
	<path d="M182.5,49.7c0-0.1,0-0.3,0-0.4s0-0.3,0-0.5c0-0.2,0-0.3,0-0.5s0-0.3,0-0.3h0.8c0,0.2,0,0.5,0,0.7s0,0.4,0,0.4h0
		c0.2-0.3,0.4-0.7,0.8-0.9s0.8-0.4,1.4-0.4c0.5,0,0.9,0.1,1.2,0.2c0.3,0.2,0.6,0.4,0.7,0.6c0.2,0.2,0.3,0.6,0.4,0.9
		c0.1,0.3,0.1,0.7,0.1,1v3.8h-0.8v-3.8c0-0.3,0-0.5-0.1-0.8s-0.1-0.5-0.2-0.7c-0.1-0.2-0.3-0.3-0.5-0.5c-0.2-0.1-0.5-0.2-0.8-0.2
		c-0.3,0-0.6,0.1-0.9,0.2s-0.5,0.3-0.7,0.5c-0.2,0.2-0.4,0.5-0.5,0.8c-0.1,0.3-0.2,0.7-0.2,1.2v3.2h-0.8L182.5,49.7L182.5,49.7z"/>
	<path d="M193.3,48.7h-1.8v4.2c0,0.3,0.1,0.5,0.2,0.7c0.2,0.2,0.4,0.2,0.6,0.2c0.2,0,0.3,0,0.5-0.1c0.2,0,0.3-0.1,0.5-0.2l0.1,0.7
		c-0.2,0.1-0.3,0.1-0.5,0.2c-0.2,0.1-0.4,0.1-0.5,0.1c-0.3,0-0.6,0-0.8-0.1c-0.2-0.1-0.4-0.2-0.5-0.3c-0.1-0.2-0.2-0.3-0.3-0.5
		s-0.1-0.4-0.1-0.6v-4.2h-1.4V48h1.4v-1.8h0.8V48h1.8L193.3,48.7L193.3,48.7z"/>
	<path d="M200.4,53.1c-0.3,0.5-0.7,0.8-1.2,1.1c-0.5,0.2-1,0.3-1.6,0.3c-0.5,0-0.9-0.1-1.3-0.2c-0.4-0.2-0.7-0.4-1-0.7
		c-0.3-0.3-0.5-0.7-0.7-1.1c-0.1-0.4-0.2-0.9-0.2-1.4c0-0.5,0.1-0.9,0.2-1.3c0.2-0.4,0.4-0.8,0.7-1.1c0.3-0.3,0.6-0.5,1-0.7
		s0.8-0.2,1.3-0.2c0.5,0,0.9,0.1,1.3,0.2s0.7,0.4,0.9,0.7s0.4,0.6,0.6,1s0.2,0.7,0.2,1.1v0.6h-5.4c0,0.2,0,0.4,0.1,0.7
		s0.2,0.5,0.4,0.8c0.2,0.3,0.4,0.5,0.7,0.7c0.3,0.2,0.7,0.3,1.2,0.3c0.4,0,0.8-0.1,1.2-0.3c0.4-0.2,0.7-0.5,0.9-0.8L200.4,53.1z
		 M199.8,50.6c0-0.3-0.1-0.6-0.2-0.8c-0.1-0.2-0.3-0.5-0.5-0.7s-0.4-0.3-0.7-0.4s-0.6-0.2-0.9-0.2c-0.4,0-0.8,0.1-1.1,0.3
		c-0.3,0.2-0.5,0.4-0.7,0.6c-0.2,0.2-0.3,0.5-0.4,0.7c-0.1,0.2-0.1,0.4-0.1,0.5C195.2,50.6,199.8,50.6,199.8,50.6z"/>
</g>
<g>
	<g>
		<polyline class="st0" points="28.8,65.1 28.8,34.9 45.3,65.1 45.3,34.9 		"/>
		<line class="st1" x1="28.8" y1="51.1" x2="35.2" y2="51.1"/>
		<line class="st1" x1="45.2" y1="35" x2="52.5" y2="35"/>
	</g>
	<circle class="st0" cx="38.4" cy="50" r="24.8"/>
</g>
</svg>
