<?xml version="1.0" encoding="utf-8"?>
<!-- Generator: Adobe Illustrator 25.2.3, SVG Export Plug-In . SVG Version: 6.00 Build 0)  -->
<svg version="1.2" baseProfile="tiny" id="Layer_1" xmlns="http://www.w3.org/2000/svg" xmlns:xlink="http://www.w3.org/1999/xlink"
	 x="0px" y="0px" viewBox="0 0 210 100" overflow="visible" xml:space="preserve">
<g>
	<polyline fill="none" stroke="#FFFFFF" stroke-width="0.5" stroke-miterlimit="10" points="90.02,65.07 90.02,12.63 118.69,65.07 
		118.69,12.63 	"/>
	
		<line fill="none" stroke="#FFFFFF" stroke-width="0.5" stroke-linejoin="bevel" stroke-miterlimit="10" x1="89.97" y1="40.83" x2="101.1" y2="40.83"/>
	
		<line fill="none" stroke="#FFFFFF" stroke-width="0.5" stroke-linejoin="bevel" stroke-miterlimit="10" x1="118.5" y1="12.75" x2="131.21" y2="12.75"/>
	<g>
		<path fill="#FFFFFF" d="M43.68,74.29h0.94l4.11,9.77h-1.02l-1.06-2.6h-5.18l-1.1,2.6h-0.95L43.68,74.29z M44.11,75.28l-2.28,5.36
			h4.49L44.11,75.28z"/>
		<path fill="#FFFFFF" d="M49.91,79.48c0-0.12,0-0.26-0.01-0.43c-0.01-0.17-0.02-0.34-0.02-0.52c0-0.17-0.01-0.34-0.02-0.49
			s-0.01-0.27-0.01-0.35h0.83c0.01,0.24,0.02,0.47,0.02,0.69c0,0.22,0.02,0.36,0.03,0.43h0.04c0.17-0.35,0.44-0.65,0.83-0.9
			c0.39-0.25,0.84-0.38,1.35-0.38c0.5,0,0.9,0.08,1.21,0.23c0.31,0.16,0.56,0.36,0.74,0.62c0.18,0.25,0.3,0.55,0.37,0.88
			c0.07,0.33,0.1,0.67,0.1,1.02v3.8h-0.83V80.3c0-0.26-0.02-0.51-0.07-0.75c-0.05-0.24-0.13-0.46-0.24-0.66
			c-0.12-0.19-0.28-0.35-0.48-0.46c-0.21-0.12-0.48-0.17-0.81-0.17c-0.3,0-0.59,0.05-0.86,0.16c-0.27,0.11-0.51,0.27-0.7,0.48
			c-0.2,0.22-0.35,0.49-0.47,0.81c-0.12,0.33-0.17,0.71-0.17,1.15v3.19h-0.83V79.48z"/>
		<path fill="#FFFFFF" d="M60.7,78.43h-1.82v4.15c0,0.29,0.08,0.51,0.23,0.66c0.16,0.16,0.37,0.24,0.65,0.24
			c0.16,0,0.31-0.02,0.48-0.06c0.16-0.04,0.31-0.09,0.46-0.16L60.77,84c-0.16,0.06-0.34,0.11-0.54,0.15
			c-0.2,0.05-0.38,0.07-0.54,0.07c-0.29,0-0.55-0.04-0.76-0.13c-0.21-0.09-0.38-0.2-0.51-0.35c-0.13-0.15-0.22-0.32-0.28-0.52
			c-0.06-0.2-0.09-0.41-0.09-0.64v-4.15h-1.38v-0.74h1.38v-1.84h0.83v1.84h1.82V78.43z"/>
		<path fill="#FFFFFF" d="M62.19,73.62h0.83v5.18h0.03c0.17-0.35,0.44-0.65,0.83-0.9c0.39-0.25,0.84-0.38,1.35-0.38
			c0.5,0,0.9,0.08,1.21,0.23c0.31,0.16,0.56,0.36,0.74,0.62c0.18,0.25,0.3,0.55,0.37,0.88c0.07,0.33,0.1,0.67,0.1,1.02v3.8h-0.83
			V80.3c0-0.26-0.02-0.51-0.07-0.75c-0.05-0.24-0.13-0.46-0.24-0.66c-0.12-0.19-0.28-0.35-0.48-0.46c-0.21-0.12-0.48-0.17-0.81-0.17
			c-0.3,0-0.59,0.05-0.86,0.16c-0.27,0.11-0.51,0.27-0.7,0.48c-0.2,0.22-0.35,0.49-0.47,0.81c-0.12,0.33-0.17,0.71-0.17,1.15v3.19
			h-0.83V73.62z"/>
		<path fill="#FFFFFF" d="M69.5,80.87c0-0.49,0.08-0.94,0.25-1.35c0.17-0.41,0.4-0.76,0.69-1.06c0.29-0.3,0.65-0.53,1.06-0.7
			c0.41-0.17,0.87-0.25,1.35-0.25s0.94,0.08,1.35,0.25c0.41,0.17,0.76,0.4,1.06,0.7c0.3,0.3,0.53,0.65,0.7,1.06
			c0.17,0.41,0.25,0.86,0.25,1.35s-0.08,0.94-0.25,1.35c-0.17,0.41-0.4,0.76-0.7,1.06c-0.3,0.3-0.65,0.53-1.06,0.7
			c-0.41,0.17-0.86,0.25-1.35,0.25s-0.94-0.08-1.35-0.25c-0.41-0.17-0.77-0.4-1.06-0.7c-0.29-0.3-0.52-0.65-0.69-1.06
			C69.59,81.81,69.5,81.36,69.5,80.87z M70.33,80.87c0,0.36,0.06,0.7,0.17,1.01c0.11,0.32,0.28,0.59,0.5,0.83
			c0.22,0.23,0.49,0.42,0.8,0.56c0.31,0.14,0.66,0.21,1.05,0.21s0.74-0.07,1.05-0.21c0.31-0.14,0.58-0.32,0.8-0.56
			c0.22-0.24,0.39-0.51,0.5-0.83c0.11-0.32,0.17-0.66,0.17-1.01c0-0.36-0.06-0.7-0.17-1.01c-0.12-0.32-0.28-0.59-0.5-0.83
			c-0.22-0.23-0.49-0.42-0.8-0.56c-0.31-0.14-0.66-0.21-1.05-0.21s-0.74,0.07-1.05,0.21c-0.31,0.14-0.58,0.32-0.8,0.56
			c-0.22,0.24-0.39,0.51-0.5,0.83C70.39,80.17,70.33,80.51,70.33,80.87z"/>
		<path fill="#FFFFFF" d="M78.06,79.48c0-0.12,0-0.26-0.01-0.43c-0.01-0.17-0.02-0.34-0.02-0.52c0-0.17-0.01-0.34-0.02-0.49
			c-0.01-0.15-0.01-0.27-0.01-0.35h0.83c0.01,0.24,0.02,0.47,0.02,0.69c0,0.22,0.02,0.36,0.03,0.43h0.04
			c0.17-0.35,0.44-0.65,0.83-0.9c0.39-0.25,0.84-0.38,1.35-0.38c0.5,0,0.9,0.08,1.21,0.23c0.31,0.16,0.56,0.36,0.74,0.62
			c0.18,0.25,0.3,0.55,0.37,0.88c0.07,0.33,0.1,0.67,0.1,1.02v3.8H82.7V80.3c0-0.26-0.02-0.51-0.07-0.75
			c-0.05-0.24-0.13-0.46-0.24-0.66c-0.12-0.19-0.28-0.35-0.48-0.46c-0.21-0.12-0.48-0.17-0.81-0.17c-0.3,0-0.59,0.05-0.86,0.16
			c-0.27,0.11-0.51,0.27-0.7,0.48c-0.2,0.22-0.35,0.49-0.47,0.81c-0.12,0.33-0.17,0.71-0.17,1.15v3.19h-0.83V79.48z"/>
		<path fill="#FFFFFF" d="M87.53,86.03c-0.16,0.41-0.37,0.74-0.65,0.98c-0.28,0.24-0.64,0.36-1.1,0.36c-0.14,0-0.28-0.01-0.41-0.03
			s-0.27-0.05-0.4-0.09l0.08-0.77c0.12,0.04,0.24,0.07,0.37,0.1c0.12,0.03,0.25,0.05,0.38,0.05c0.15,0,0.28-0.03,0.39-0.1
			c0.12-0.06,0.21-0.15,0.3-0.25c0.08-0.1,0.15-0.21,0.21-0.34c0.06-0.12,0.11-0.25,0.16-0.38l0.58-1.48l-2.59-6.4h0.92l2.11,5.37
			l2.06-5.37h0.88L87.53,86.03z"/>
		<path fill="#FFFFFF" d="M101.29,82.94h-0.03c-0.13,0.22-0.29,0.41-0.48,0.57c-0.19,0.16-0.4,0.29-0.63,0.4
			c-0.23,0.11-0.46,0.18-0.71,0.23c-0.25,0.05-0.49,0.08-0.73,0.08c-0.49,0-0.94-0.08-1.35-0.25c-0.41-0.17-0.77-0.4-1.06-0.7
			c-0.29-0.3-0.52-0.65-0.69-1.06s-0.25-0.86-0.25-1.35s0.08-0.94,0.25-1.35c0.17-0.41,0.4-0.76,0.69-1.06
			c0.29-0.3,0.65-0.53,1.06-0.7c0.41-0.17,0.87-0.25,1.35-0.25c0.24,0,0.48,0.03,0.73,0.08c0.25,0.05,0.49,0.13,0.71,0.23
			c0.23,0.11,0.43,0.24,0.63,0.4s0.35,0.35,0.48,0.57h0.03v-5.18h0.83v10.43h-0.83V82.94z M101.37,80.87c0-0.36-0.07-0.7-0.21-1.01
			s-0.33-0.59-0.57-0.83c-0.24-0.23-0.52-0.42-0.84-0.56c-0.32-0.14-0.67-0.21-1.05-0.21c-0.39,0-0.74,0.07-1.05,0.21
			c-0.31,0.14-0.58,0.32-0.8,0.56c-0.22,0.24-0.39,0.51-0.5,0.83c-0.12,0.32-0.17,0.66-0.17,1.01c0,0.36,0.06,0.7,0.17,1.01
			c0.11,0.32,0.28,0.59,0.5,0.83c0.22,0.23,0.49,0.42,0.8,0.56c0.31,0.14,0.66,0.21,1.05,0.21c0.38,0,0.73-0.07,1.05-0.21
			c0.32-0.14,0.6-0.32,0.84-0.56c0.24-0.24,0.43-0.51,0.57-0.83S101.37,81.23,101.37,80.87z"/>
		<path fill="#FFFFFF" d="M109.78,82.86c-0.32,0.49-0.72,0.84-1.19,1.05c-0.47,0.21-1,0.32-1.57,0.32c-0.49,0-0.93-0.08-1.33-0.25
			c-0.4-0.17-0.74-0.4-1.02-0.7c-0.28-0.3-0.5-0.65-0.66-1.06s-0.23-0.86-0.23-1.36c0-0.48,0.08-0.92,0.23-1.33
			c0.16-0.4,0.38-0.76,0.66-1.05c0.28-0.3,0.62-0.53,1.01-0.7c0.39-0.17,0.81-0.25,1.28-0.25c0.49,0,0.92,0.08,1.29,0.25
			c0.37,0.17,0.69,0.4,0.94,0.68s0.44,0.6,0.57,0.96c0.13,0.36,0.19,0.72,0.19,1.09v0.58h-5.35c0,0.18,0.03,0.4,0.1,0.67
			c0.07,0.27,0.2,0.54,0.38,0.79c0.18,0.26,0.43,0.48,0.74,0.66c0.31,0.18,0.71,0.28,1.19,0.28c0.42,0,0.83-0.1,1.23-0.3
			c0.4-0.2,0.7-0.48,0.91-0.83L109.78,82.86z M109.14,80.33c0-0.29-0.06-0.55-0.17-0.8c-0.12-0.25-0.27-0.47-0.47-0.66
			c-0.2-0.19-0.43-0.34-0.7-0.45s-0.56-0.17-0.86-0.17c-0.45,0-0.83,0.09-1.12,0.28c-0.3,0.19-0.54,0.4-0.71,0.64
			c-0.18,0.24-0.3,0.47-0.37,0.7c-0.07,0.23-0.11,0.38-0.11,0.46H109.14z"/>
		<path fill="#FFFFFF" d="M115.54,73.62h0.83v10.43h-0.83V73.62z"/>
		<path fill="#FFFFFF" d="M123.67,81.38c0,0.31,0,0.59,0.01,0.84c0,0.25,0.01,0.48,0.02,0.69c0.01,0.21,0.02,0.41,0.03,0.59
			c0.01,0.19,0.03,0.37,0.06,0.55h-0.77c-0.06-0.31-0.08-0.66-0.08-1.04h-0.03c-0.24,0.41-0.54,0.72-0.89,0.91
			c-0.35,0.19-0.8,0.29-1.35,0.29c-0.28,0-0.55-0.03-0.81-0.1c-0.27-0.07-0.51-0.18-0.72-0.33c-0.21-0.15-0.38-0.35-0.52-0.59
			c-0.13-0.24-0.2-0.53-0.2-0.87c0-0.49,0.12-0.87,0.37-1.16c0.25-0.29,0.55-0.5,0.92-0.64c0.36-0.14,0.75-0.23,1.16-0.28
			c0.41-0.04,0.77-0.06,1.08-0.06h0.97v-0.39c0-0.55-0.17-0.95-0.51-1.19c-0.34-0.24-0.77-0.36-1.28-0.36
			c-0.74,0-1.39,0.24-1.95,0.72l-0.48-0.57c0.3-0.29,0.68-0.52,1.13-0.67s0.88-0.23,1.3-0.23c0.77,0,1.39,0.18,1.85,0.55
			c0.46,0.36,0.69,0.95,0.69,1.76V81.38z M122.02,80.86c-0.35,0-0.69,0.02-1.01,0.07c-0.33,0.05-0.62,0.12-0.88,0.24
			c-0.26,0.11-0.47,0.26-0.63,0.44c-0.16,0.18-0.23,0.41-0.23,0.69c0,0.19,0.04,0.37,0.13,0.52c0.09,0.15,0.2,0.28,0.34,0.37
			c0.14,0.1,0.29,0.17,0.46,0.22c0.17,0.05,0.34,0.08,0.52,0.08c0.44,0,0.8-0.06,1.09-0.19c0.28-0.13,0.51-0.3,0.68-0.5
			c0.17-0.21,0.29-0.44,0.35-0.7c0.06-0.26,0.1-0.53,0.1-0.79v-0.43H122.02z"/>
		<path fill="#FFFFFF" d="M129.7,74.29h5.85v0.83h-4.94v3.48h4.6v0.83h-4.6v4.64h-0.91V74.29z"/>
		<path fill="#FFFFFF" d="M142.54,82.26c0,0.12,0,0.26,0.01,0.43c0.01,0.17,0.02,0.34,0.02,0.52c0,0.18,0.01,0.34,0.02,0.49
			c0.01,0.15,0.01,0.27,0.01,0.35h-0.83c-0.01-0.24-0.02-0.47-0.02-0.69c0-0.22-0.02-0.36-0.03-0.43h-0.04
			c-0.17,0.35-0.44,0.65-0.83,0.9c-0.39,0.25-0.84,0.38-1.35,0.38c-0.5,0-0.9-0.08-1.22-0.23c-0.32-0.16-0.57-0.36-0.75-0.62
			c-0.18-0.25-0.3-0.54-0.37-0.88c-0.06-0.33-0.1-0.67-0.1-1.02v-3.8h0.83v3.75c0,0.26,0.02,0.51,0.07,0.75
			c0.05,0.24,0.13,0.46,0.24,0.66c0.12,0.19,0.28,0.35,0.48,0.46c0.21,0.12,0.48,0.17,0.81,0.17c0.3,0,0.59-0.05,0.86-0.16
			c0.27-0.11,0.51-0.27,0.7-0.48c0.2-0.22,0.35-0.49,0.47-0.81c0.12-0.33,0.17-0.71,0.17-1.15v-3.19h0.83V82.26z"/>
		<path fill="#FFFFFF" d="M150.45,82.86c-0.32,0.49-0.72,0.84-1.19,1.05c-0.47,0.21-1,0.32-1.57,0.32c-0.49,0-0.93-0.08-1.33-0.25
			c-0.4-0.17-0.74-0.4-1.02-0.7c-0.28-0.3-0.5-0.65-0.66-1.06s-0.23-0.86-0.23-1.36c0-0.48,0.08-0.92,0.23-1.33
			c0.16-0.4,0.38-0.76,0.66-1.05c0.28-0.3,0.62-0.53,1.01-0.7c0.39-0.17,0.81-0.25,1.28-0.25c0.49,0,0.92,0.08,1.29,0.25
			c0.37,0.17,0.69,0.4,0.94,0.68c0.25,0.28,0.44,0.6,0.57,0.96c0.13,0.36,0.19,0.72,0.19,1.09v0.58h-5.35c0,0.18,0.03,0.4,0.1,0.67
			c0.07,0.27,0.2,0.54,0.38,0.79c0.18,0.26,0.43,0.48,0.74,0.66c0.31,0.18,0.71,0.28,1.19,0.28c0.42,0,0.83-0.1,1.23-0.3
			c0.4-0.2,0.7-0.48,0.91-0.83L150.45,82.86z M149.81,80.33c0-0.29-0.06-0.55-0.17-0.8c-0.12-0.25-0.27-0.47-0.47-0.66
			c-0.2-0.19-0.43-0.34-0.7-0.45s-0.56-0.17-0.86-0.17c-0.45,0-0.83,0.09-1.12,0.28c-0.3,0.19-0.54,0.4-0.71,0.64
			c-0.18,0.24-0.3,0.47-0.37,0.7c-0.07,0.23-0.11,0.38-0.11,0.46H149.81z"/>
		<path fill="#FFFFFF" d="M152.49,79.48c0-0.12,0-0.26-0.01-0.43c-0.01-0.17-0.02-0.34-0.02-0.52c0-0.17-0.01-0.34-0.02-0.49
			s-0.01-0.27-0.01-0.35h0.83c0.01,0.24,0.02,0.47,0.02,0.69c0,0.22,0.02,0.36,0.03,0.43h0.04c0.17-0.35,0.44-0.65,0.83-0.9
			c0.39-0.25,0.84-0.38,1.35-0.38c0.5,0,0.9,0.08,1.21,0.23c0.31,0.16,0.56,0.36,0.74,0.62c0.18,0.25,0.3,0.55,0.37,0.88
			c0.07,0.33,0.1,0.67,0.1,1.02v3.8h-0.83V80.3c0-0.26-0.02-0.51-0.07-0.75c-0.05-0.24-0.13-0.46-0.24-0.66
			c-0.12-0.19-0.28-0.35-0.48-0.46c-0.21-0.12-0.48-0.17-0.81-0.17c-0.3,0-0.59,0.05-0.86,0.16c-0.27,0.11-0.51,0.27-0.7,0.48
			c-0.2,0.22-0.35,0.49-0.47,0.81c-0.12,0.33-0.17,0.71-0.17,1.15v3.19h-0.83V79.48z"/>
		<path fill="#FFFFFF" d="M163.28,78.43h-1.82v4.15c0,0.29,0.08,0.51,0.23,0.66c0.16,0.16,0.37,0.24,0.65,0.24
			c0.16,0,0.31-0.02,0.48-0.06c0.16-0.04,0.31-0.09,0.46-0.16l0.07,0.74c-0.16,0.06-0.34,0.11-0.54,0.15
			c-0.2,0.05-0.38,0.07-0.54,0.07c-0.29,0-0.55-0.04-0.76-0.13c-0.21-0.09-0.38-0.2-0.51-0.35c-0.13-0.15-0.22-0.32-0.28-0.52
			c-0.06-0.2-0.09-0.41-0.09-0.64v-4.15h-1.38v-0.74h1.38v-1.84h0.83v1.84h1.82V78.43z"/>
		<path fill="#FFFFFF" d="M170.39,82.86c-0.32,0.49-0.72,0.84-1.19,1.05c-0.47,0.21-1,0.32-1.57,0.32c-0.49,0-0.93-0.08-1.33-0.25
			c-0.4-0.17-0.74-0.4-1.02-0.7c-0.28-0.3-0.5-0.65-0.66-1.06c-0.15-0.41-0.23-0.86-0.23-1.36c0-0.48,0.08-0.92,0.23-1.33
			c0.16-0.4,0.38-0.76,0.66-1.05c0.28-0.3,0.62-0.53,1.01-0.7c0.39-0.17,0.81-0.25,1.28-0.25c0.49,0,0.92,0.08,1.29,0.25
			c0.37,0.17,0.69,0.4,0.94,0.68c0.25,0.28,0.44,0.6,0.57,0.96c0.13,0.36,0.19,0.72,0.19,1.09v0.58h-5.35c0,0.18,0.03,0.4,0.1,0.67
			c0.07,0.27,0.2,0.54,0.38,0.79c0.18,0.26,0.43,0.48,0.74,0.66c0.31,0.18,0.71,0.28,1.19,0.28c0.42,0,0.83-0.1,1.23-0.3
			c0.4-0.2,0.7-0.48,0.91-0.83L170.39,82.86z M169.76,80.33c0-0.29-0.06-0.55-0.17-0.8c-0.12-0.25-0.27-0.47-0.47-0.66
			c-0.2-0.19-0.43-0.34-0.7-0.45s-0.56-0.17-0.86-0.17c-0.45,0-0.83,0.09-1.12,0.28c-0.3,0.19-0.54,0.4-0.71,0.64
			c-0.18,0.24-0.3,0.47-0.37,0.7c-0.07,0.23-0.11,0.38-0.11,0.46H169.76z"/>
	</g>
</g>
</svg>
